<svg xmlns="http://www.w3.org/2000/svg" width="834" height="216" fill="none">
  <style>
    :root {
      --primary: #0D0D0D;
    }

    @media (prefers-color-scheme: dark) {
      :root {
        --primary: #fdfdfd;
      }
    }
  </style>
  <path stroke-width="8" d="M4 4h825.775v207.643H4z" stroke="var(--primary)" />
  <path fill="var(--primary)"
    d="M97.5454 195.643c-15.804 0-29.5009-3.65-41.0906-10.95-11.5897-7.3-20.5805-17.513-26.9723-30.638C23.1608 140.93 20 125.592 20 108.043c0-17.5499 3.1608-32.9242 9.4825-46.1232 6.3918-13.199 15.3826-23.4485 26.9723-30.7486 11.5897-7.3 25.2866-10.95 41.0906-10.95 15.8046 0 29.5006 3.65 41.0906 10.95 11.59 7.3001 20.545 17.5496 26.867 30.7486 6.392 13.199 9.588 28.5733 9.588 46.1232 0 17.549-3.196 32.887-9.588 46.012-6.322 13.125-15.277 23.338-26.867 30.638-11.59 7.3-25.286 10.95-41.0906 10.95Zm.2108-32.076c8.5698 0 15.7338-2.47 21.4938-7.411 5.759-5.014 10.044-11.724 12.854-20.13 2.88-8.406 4.32-17.771 4.32-28.094 0-10.397-1.44-19.7985-4.32-28.2046-2.81-8.4798-7.095-15.2268-12.854-20.2409-5.76-5.0142-12.924-7.5213-21.4938-7.5213-8.7801 0-16.0851 2.5071-21.915 7.5213-5.7598 5.0141-10.0795 11.7611-12.9594 20.2409-2.8096 8.4061-4.2144 17.8076-4.2144 28.2046 0 10.323 1.4048 19.688 4.2144 28.094 2.8799 8.406 7.1996 15.116 12.9594 20.13 5.8299 4.941 13.1349 7.411 21.915 7.411Zm85.9708 28.758V22.4333h36.455v28.8683h1.897c3.371-9.7334 8.955-17.3283 16.752-22.7849 7.797-5.5303 17.103-8.2955 27.921-8.2955 10.957 0 20.194 2.802 27.709 8.4061 7.586 5.5303 12.925 13.0884 16.015 22.6743h1.686c3.582-9.4384 9.623-16.9596 18.122-22.5637 8.569-5.6778 18.719-8.5167 30.449-8.5167 14.891 0 27.043 4.9404 36.455 14.8213 9.412 9.8808 14.118 24.2965 14.118 43.247V192.325H373.06V84.4835c0-10.5445-2.669-18.25-8.007-23.1167-5.338-4.9404-11.871-7.4107-19.597-7.4107-9.202 0-16.401 3.0233-21.599 9.0698-5.128 5.9727-7.691 13.752-7.691 23.3379V192.325h-37.403V82.8244c0-8.7748-2.529-15.7798-7.586-21.0152-4.987-5.2354-11.52-7.8531-19.597-7.8531-5.479 0-10.466 1.4748-14.962 4.4243-4.495 2.8758-8.077 6.9682-10.746 12.2773-2.67 5.2354-4.004 11.3556-4.004 18.3607V192.325h-38.141Zm314.183 3.318c-16.226 0-30.239-3.54-42.039-10.618-11.73-7.153-20.756-17.255-27.078-30.306-6.322-13.126-9.482-28.574-9.482-46.345 0-17.4753 3.16-32.8127 9.482-46.0118 6.392-13.2727 15.312-23.596 26.762-30.9698 11.449-7.4474 24.9-11.1712 40.353-11.1712 9.974 0 19.386 1.696 28.236 5.0879 8.921 3.3182 16.788 8.4798 23.601 15.4849 6.884 7.0051 12.292 15.9273 16.226 26.7667 3.933 10.7657 5.9 23.596 5.9 38.4913v12.277H437.222V91.3411h96.089c-.07-7.6687-1.651-14.4894-4.741-20.4622-3.091-6.0465-7.411-10.8025-12.96-14.2682-5.478-3.4657-11.87-5.1985-19.175-5.1985-7.797 0-14.645 1.9909-20.546 5.9727-5.9 3.9081-10.501 9.0698-13.802 15.4849-3.231 6.3415-4.882 13.3097-4.952 20.9046v23.5596c0 9.88 1.721 18.36 5.163 25.439 3.442 7.005 8.253 12.388 14.434 16.149 6.181 3.686 13.416 5.53 21.704 5.53 5.549 0 10.572-.811 15.067-2.433 4.495-1.696 8.394-4.167 11.695-7.411 3.301-3.245 5.795-7.263 7.481-12.056l35.612 4.203c-2.248 9.881-6.533 18.508-12.854 25.882-6.252 7.3-14.259 12.978-24.023 17.033-9.763 3.982-20.931 5.973-33.504 5.973Zm80.492-3.318V22.4333h36.982v28.3153h1.685c2.951-9.8071 8.008-17.3652 15.172-22.6743C639.476 22.6914 647.729 20 657.001 20c2.107 0 4.46.1106 7.059.3318 2.669.1475 4.882.4056 6.638.7743V57.938c-1.616-.5899-4.179-1.1061-7.691-1.5485-3.442-.5162-6.779-.7743-10.01-.7743-6.953 0-13.205 1.5854-18.754 4.7561-5.479 3.097-9.798 7.4106-12.959 12.941-3.161 5.5303-4.741 11.9086-4.741 19.1349v99.8778h-38.141Z" />
  <path fill="var(--primary)"
    d="M736.229 195.643c-15.804 0-29.501-3.65-41.091-10.95-11.589-7.3-20.58-17.513-26.972-30.638-6.321-13.125-9.482-28.463-9.482-46.012 0-17.5499 3.161-32.9242 9.482-46.1232 6.392-13.199 15.383-23.4485 26.972-30.7486 11.59-7.3 25.287-10.95 41.091-10.95 15.804 0 29.501 3.65 41.091 10.95 11.589 7.3001 20.545 17.5496 26.867 30.7486 6.392 13.199 9.588 28.5733 9.588 46.1232 0 17.549-3.196 32.887-9.588 46.012-6.322 13.125-15.278 23.338-26.867 30.638-11.59 7.3-25.287 10.95-41.091 10.95Zm.211-32.076c8.569 0 15.734-2.47 21.493-7.411 5.76-5.014 10.045-11.724 12.854-20.13 2.88-8.406 4.32-17.771 4.32-28.094 0-10.397-1.44-19.7985-4.32-28.2046-2.809-8.4798-7.094-15.2268-12.854-20.2409-5.759-5.0142-12.924-7.5213-21.493-7.5213-8.78 0-16.085 2.5071-21.915 7.5213-5.76 5.0141-10.08 11.7611-12.96 20.2409-2.809 8.4061-4.214 17.8076-4.214 28.2046 0 10.323 1.405 19.688 4.214 28.094 2.88 8.406 7.2 15.116 12.96 20.13 5.83 4.941 13.135 7.411 21.915 7.411Z" />
</svg>