<svg xmlns="http://www.w3.org/2000/svg" width="196" height="216" fill="none">
  <style>
    :root {
      --primary: #0D0D0D;
    }

    @media (prefers-color-scheme: dark) {
      :root {
        --primary: #fdfdfd;
      }
    }
  </style>
  <path stroke="var(--primary)" stroke-width="8" d="M4 4h187.091v207.422H4z" />
  <path fill="var(--primary)"
    d="M97.5454 195.422c-15.804 0-29.5009-3.65-41.0906-10.95-11.5897-7.3-20.5805-17.513-26.9723-30.638C23.1608 140.708 20 125.371 20 107.821c0-17.5491 3.1608-32.9234 9.4825-46.1224C35.8743 48.4996 44.8651 38.25 56.4548 30.95 68.0445 23.65 81.7414 20 97.5454 20c15.8046 0 29.5006 3.65 41.0906 10.95 11.59 7.3 20.545 17.5496 26.867 30.7486 6.392 13.199 9.588 28.5733 9.588 46.1224 0 17.55-3.196 32.887-9.588 46.013-6.322 13.125-15.277 23.338-26.867 30.638-11.59 7.3-25.286 10.95-41.0906 10.95Zm.2108-32.076c8.5698 0 15.7338-2.47 21.4938-7.411 5.759-5.014 10.044-11.724 12.854-20.13 2.88-8.406 4.32-17.771 4.32-28.094 0-10.3972-1.44-19.7987-4.32-28.2048-2.81-8.4798-7.095-15.2268-12.854-20.241-5.76-5.0141-12.924-7.5212-21.4938-7.5212-8.7801 0-16.0851 2.5071-21.915 7.5212-5.7598 5.0142-10.0796 11.7612-12.9594 20.241-2.8096 8.4061-4.2144 17.8076-4.2144 28.2048 0 10.323 1.4048 19.688 4.2144 28.094 2.8798 8.406 7.1996 15.116 12.9594 20.13 5.8299 4.941 13.1349 7.411 21.915 7.411Z" />
</svg>